<svg width="32" height="32" viewBox="0 0 32 32" fill="none" xmlns="http://www.w3.org/2000/svg">
<path d="M3.33334 28.0319L4.38646 24.2019C6.12854 17.8664 10.7309 14.6986 15.3333 14.6986" stroke="black" stroke-width="2" stroke-linecap="round" stroke-linejoin="round"/>
<path d="M15.3333 14.656C19.0152 14.656 22 11.6713 22 7.98936C22 4.30746 19.0152 1.32269 15.3333 1.32269C11.6514 1.32269 8.66666 4.30746 8.66666 7.98936C8.66666 11.6713 11.6514 14.656 15.3333 14.656Z" stroke="black" stroke-width="2" stroke-linecap="round" stroke-linejoin="bevel"/>
<path d="M22 30.6773C25.6819 30.6773 28.6667 27.6925 28.6667 24.0106C28.6667 20.3287 25.6819 17.344 22 17.344C18.3181 17.344 15.3333 20.3287 15.3333 24.0106C15.3333 27.6925 18.3181 30.6773 22 30.6773Z" stroke="black" stroke-width="2" stroke-linecap="round" stroke-linejoin="round"/>
<path d="M22 24.9184V20.6915" stroke="black" stroke-width="2" stroke-linecap="round" stroke-linejoin="round"/>
<path d="M22 27.2447V27.3582" stroke="black" stroke-width="2" stroke-linecap="round" stroke-linejoin="round"/>
</svg>
