<svg width="32" height="32" viewBox="0 0 32 32" fill="none" xmlns="http://www.w3.org/2000/svg">
<path d="M4 28.0213L5.05312 24.1914C6.7952 17.8557 11.3976 14.688 16 14.688" stroke="black" stroke-width="2" stroke-linecap="round" stroke-linejoin="round"/>
<path d="M16 14.6454C19.6819 14.6454 22.6667 11.6606 22.6667 7.97871C22.6667 4.29681 19.6819 1.31204 16 1.31204C12.3181 1.31204 9.33334 4.29681 9.33334 7.97871C9.33334 11.6606 12.3181 14.6454 16 14.6454Z" stroke="black" stroke-width="2" stroke-linecap="round" stroke-linejoin="bevel"/>
<path d="M22.6667 30.6667C26.3486 30.6667 29.3333 27.6819 29.3333 24C29.3333 20.3181 26.3486 17.3333 22.6667 17.3333C18.9848 17.3333 16 20.3181 16 24C16 27.6819 18.9848 30.6667 22.6667 30.6667Z" stroke="black" stroke-width="2" stroke-linecap="round" stroke-linejoin="round"/>
<path d="M19.8293 24.1987L21.76 26.776L26.044 22.096" stroke="black" stroke-width="2" stroke-linecap="round" stroke-linejoin="round"/>
</svg>
